<svg id="Capa_1" enable-background="new 0 0 410.082 410.082" height="512" viewBox="0 0 410.082 410.082" width="512" xmlns="http://www.w3.org/2000/svg"><g><g><g fill="#3a556a"><path d="m208.333 204.638h-6.635v-33.525c.028-15.114 12.274-27.36 27.388-27.388h64.405c11.475-.562 20.323-10.321 19.76-21.796-.524-10.688-9.071-19.236-19.76-19.76h-134.395c-15.107 0-27.36-12.231-27.388-27.338v-15.614h6.635v15.615c0 11.462 9.291 20.753 20.753 20.753h134.395c15.154 0 27.438 12.284 27.438 27.438s-12.284 27.438-27.438 27.438h-64.405c-11.462 0-20.753 9.291-20.753 20.753z"/><path d="m127.517 60.963h15.016v9.827h-15.016z"/><path d="m125.221 26.441h-6.685v-23.048c.229-1.887 1.944-3.232 3.831-3.003 1.573.191 2.814 1.43 3.003 3.003z"/><path d="m151.512 26.441h-6.834v-23.048c-.028-1.846 1.446-3.365 3.292-3.393h.1c1.874-.028 3.414 1.469 3.442 3.342v.05z"/></g><path d="m124.524 40.06-14.618-7.682v-10.328h50.237v10.328l-22 14.866z" fill="#fe7058"/><path d="m149.566 64.555h-29.084l-10.576-32.177h50.237z" fill="#ea6453"/><g fill="#3a556a"><path d="m54.182 240.506c.439-2.479 2.482-4.359 4.989-4.589l17.311-1.996c2.727-.301 5.276 1.404 6.037 4.041l1.746 6.235h8.381l-1.197 11.076-11.424-2.046-3.592 2.046h-18.21c-3.085-.01-5.579-2.52-5.569-5.607.001-.311.028-.623.081-.93z"/><path d="m355.9 240.506c-.439-2.479-2.482-4.359-4.989-4.589l-17.311-1.996c-2.727-.301-5.276 1.404-6.037 4.041l-1.746 6.235h-8.231l1.197 11.076 11.424-2.046 3.592 2.046h18.06c3.085-.01 5.579-2.52 5.569-5.607-.001-.311-.028-.623-.081-.93z"/><path d="m51.639 326.261c-1.925 13.764-2.759 27.659-2.495 41.556-.076 11.569.875 23.122 2.843 34.522.646 3.564 3.665 6.212 7.284 6.385l25.492 1.347c4.124.216 7.714-2.787 8.231-6.884.699-5.887 1.846-14.966 3.093-24.944 2.246-18.257-44.448-51.982-44.448-51.982z"/><path d="m358.443 326.261c1.925 13.764 2.759 27.659 2.495 41.556.076 11.569-.875 23.122-2.843 34.522-.646 3.564-3.665 6.212-7.284 6.385l-25.492 1.347c-4.124.216-7.714-2.787-8.231-6.884-.699-5.887-1.846-14.966-3.093-24.944-2.246-18.257 44.448-51.982 44.448-51.982z"/></g><path d="m358.743 293.138c-2.793-23.896-34.422-38.014-34.422-38.014-21.8-54.875-42.205-61.212-42.205-61.212-23.048-5.887-70.84-6.285-77.075-6.285s-54.028.399-77.075 6.285c0 0-20.404 6.385-42.205 61.212 0 0-31.629 14.118-34.422 38.014s-4.989 71.737 7.034 85.805 136.691 14.616 146.668 14.666 135.244-1.197 146.668-14.668c11.425-13.467 9.878-61.908 7.034-85.803z" fill="#029bc5"/><path d="m274.484 239.757h-69.443-69.443l-41.257 15.467 41.257 40.307h69.443 69.443l41.256-40.307z" fill="#05acd3"/><path d="m256.924 308.802h-101.77c-3.22.144-5.714 2.872-5.57 6.093.035.794.233 1.573.58 2.288l12.622 25.941c.946 1.911 2.858 3.154 4.989 3.242h76.477c2.131-.088 4.043-1.332 4.989-3.242l12.672-25.941c1.408-2.9.2-6.392-2.701-7.801-.716-.348-1.494-.544-2.288-.58z" fill="#3a556a"/><path d="m290.348 205.037c-19.307-4.989-85.307-9.28-170.613 0 0 0-20.553 24.944-25.392 50.336 24.609-3.986 49.46-6.303 74.382-6.934h72.086c25.069.58 50.07 2.864 74.831 6.834-4.74-25.293-25.294-50.236-25.294-50.236z" fill="#3a556a"/><path d="m330.706 278.32c-2.226-.421-4.473.621-5.588 2.593-5.589 8.789-13.136 16.165-22.05 21.552-4.413 3.016-5.545 9.039-2.529 13.452.374.548.803 1.056 1.282 1.516 2.492 2.311 5.989 3.194 9.28 2.345 11.848-2.748 22.407-9.451 29.933-19.007.678-.877 1.078-1.937 1.147-3.043.897-11.375-3.043-17.861-11.475-19.408z" fill="#ebf0f3"/><path d="m342.231 297.777c-.094 1.101-.492 2.154-1.147 3.043-7.51 9.573-18.074 16.281-29.933 19.007-3.291.85-6.787-.034-9.28-2.345-1.232-1.165-2.113-2.651-2.545-4.291.344.51.746.978 1.197 1.397 2.48 2.294 5.955 3.176 9.23 2.345 11.867-2.702 22.439-9.416 29.933-19.007.692-.874 1.107-1.933 1.197-3.043.364-3.576.009-7.19-1.047-10.626 2.2 4.143 3.038 8.873 2.395 13.52z" fill="#d5d6db"/><circle cx="312.398" cy="308.153" fill="#e1e6e9" r="5.038"/><path d="m328.762 287.999c-4.408 0-7.981 3.573-7.981 7.981s3.573 7.981 7.981 7.981 7.981-3.573 7.981-7.981-3.574-7.981-7.981-7.981z" fill="#e1e6e9"/><path d="m79.376 278.32c2.226-.421 4.473.621 5.588 2.593 5.589 8.789 13.136 16.165 22.05 21.552 4.413 3.016 5.545 9.039 2.529 13.452-.374.548-.803 1.056-1.282 1.516-2.492 2.311-5.989 3.194-9.28 2.345-11.848-2.748-22.407-9.451-29.933-19.007-.678-.877-1.078-1.937-1.147-3.043-.897-11.375 3.044-17.861 11.475-19.408z" fill="#ebf0f3"/><path d="m67.852 297.777c.094 1.101.492 2.154 1.147 3.043 7.51 9.573 18.074 16.281 29.933 19.007 3.291.85 6.787-.034 9.28-2.345 1.232-1.165 2.113-2.651 2.545-4.291-.344.51-.746.978-1.197 1.397-2.48 2.294-5.955 3.176-9.23 2.345-11.867-2.702-22.439-9.416-29.933-19.007-.692-.874-1.107-1.933-1.197-3.043-.332-3.583.057-7.196 1.147-10.626-2.235 4.131-3.108 8.863-2.495 13.52z" fill="#d5d6db"/><circle cx="97.684" cy="308.153" fill="#e1e6e9" r="5.038"/><path d="m81.322 287.999c4.408 0 7.981 3.573 7.981 7.981s-3.573 7.981-7.981 7.981-7.981-3.573-7.981-7.981c-.002-4.408 3.572-7.981 7.981-7.981z" fill="#e1e6e9"/><path d="m284.311 361.682c-2.635-4.128-7.343-6.453-12.222-6.037-44.638 3.292-89.459 3.292-134.096 0-4.871-.372-9.557 1.943-12.222 6.037-4.013 6.231-2.217 14.535 4.013 18.549 1.894 1.22 4.065 1.944 6.313 2.104 45.925 3.143 92.013 3.143 137.937 0 7.366-.505 12.929-6.886 12.424-14.253-.155-2.282-.896-4.485-2.147-6.4z" fill="#05acd3"/><circle cx="329.11" cy="359.786" fill="#ebf0f3" r="12.023"/><circle cx="80.972" cy="359.786" fill="#ebf0f3" r="12.023"/></g></g></svg>